# xmcd
#
# Track frame offsets:
# 150
# 15377
# 29702
# 43960
# 58769
# 74280
# 88223
# 101130
# 115839
# 127602
# 140853
# 152634
# 171048
# 184804
# 202851
# 228486
# 242926
# 256853
#
# Disc length: 3577 seconds
#
#
# Revision: 0
# Processed by: cddbd v1.5.2PL0 Copyright (c) Steve Scherf et al.
# Submitted via: FreeRIP 2.945 
#
DISCID=fe0df712
DTITLE=Τα Ελληνικά νησιά - Παραδοσιακά νησιώτικα, Διάφοροι - Τα Ελληνικά νησιά - Παραδοσιακά νησιώτικα
DYEAR=1900
DGENRE=Ελληνικά
TTITLE0=Το θαλασσάκι
TTITLE1=Ξεκινά μια ψαροπούλα
TTITLE2=Η μπρατσέρα
TTITLE3=Δεν μπορώ να κλαίω πια
TTITLE4=Μεσ' του Αιγαίου τα νησιά
TTITLE5=Έχει το χρώμα της αυγής
TTITLE6=Σούστα
TTITLE7=Ο κουκουμάς
TTITLE8=Της ωριάς
TTITLE9=Το πλατανιώτικο νερό
TTITLE10=Βρε Κεχαγιά περήφανε
TTITLE11=Ο Μανώλαρος
TTITLE12=Τσιριγώτικος
TTITLE13=Ηρακλειώτικος πηδηχτός
TTITLE14=Ερωτόκριτος
TTITLE15=Το αλφαβητάρι της αγάπης
TTITLE16=Σ' ένα παπόρο μέσα
TTITLE17=Απόψε την κιθάρα μου
EXTD=
EXTT0=
EXTT1=
EXTT2=
EXTT3=
EXTT4=
EXTT5=
EXTT6=
EXTT7=
EXTT8=
EXTT9=
EXTT10=
EXTT11=
EXTT12=
EXTT13=
EXTT14=
EXTT15=
EXTT16=
EXTT17=
PLAYORDER=
